<svg xmlns="http://www.w3.org/2000/svg" width="40" viewBox="0 0 30 30" height="40" version="1.0"><defs><clipPath id="a"><path d="M.484 0h29.032v29.031H.484zm0 0"/></clipPath></defs><path fill="#ea2d40" d="M13.473 7.64h3.054v.762h-3.054zm0 0"/><g clip-path="url(#a)"><path fill="#ea2d40" d="M15 0a14.408 14.408 0 00-5.555 1.105c-.883.364-1.718.813-2.511 1.34a14.974 14.974 0 00-2.2 1.805A14.804 14.804 0 002.93 6.453c-.528.79-.977 1.629-1.34 2.508a14.408 14.408 0 00-1.106 5.555A14.408 14.408 0 001.59 20.07a14.477 14.477 0 003.145 4.71c.676.672 1.41 1.274 2.2 1.805.793.531 1.628.977 2.511 1.34A14.408 14.408 0 0015 29.03a14.408 14.408 0 005.555-1.105 14.217 14.217 0 002.511-1.34 14.974 14.974 0 002.2-1.805 14.477 14.477 0 003.145-4.71 14.408 14.408 0 001.105-5.555c0-.954-.094-1.895-.282-2.832a14.37 14.37 0 00-.828-2.72 14.369 14.369 0 00-3.148-4.707 14.273 14.273 0 00-2.195-1.804A14.235 14.235 0 0020.55 1.11a14.37 14.37 0 00-2.719-.828A14.386 14.386 0 0015 0zm6.113 20.012a2.978 2.978 0 01-.933 2.086 2.971 2.971 0 01-2.133.824h-6.094a3.016 3.016 0 01-1.148-.2 2.955 2.955 0 01-.985-.624 2.985 2.985 0 01-.933-2.086V11.46a.74.74 0 01.226-.543.734.734 0 01.54-.223c.21 0 .39.075.538.223a.75.75 0 01.223.543v8.55c.012.192.059.376.145.552.082.171.195.324.34.453a1.455 1.455 0 001.054.375h6.094a1.455 1.455 0 001.055-.375c.144-.13.257-.282.34-.454a1.44 1.44 0 00.144-.55V11.46c0-.211.074-.39.223-.543a.734.734 0 01.539-.223c.21 0 .39.075.539.223a.738.738 0 01.226.543zm-8.406-1.676v-5.348c0-.21.074-.39.227-.539a.723.723 0 01.539-.226c.21 0 .39.074.539.226a.734.734 0 01.222.54v5.347c0 .21-.074.39-.222.539a.723.723 0 01-.54.227.723.723 0 01-.538-.227.723.723 0 01-.227-.54zm3.059 0v-5.348c0-.21.074-.39.222-.539a.723.723 0 01.54-.226c.21 0 .39.074.538.226a.723.723 0 01.227.54v5.347c0 .21-.074.39-.227.539a.723.723 0 01-.539.227.723.723 0 01-.539-.227.734.734 0 01-.222-.54zm5.347-8.402H8.887a.723.723 0 01-.54-.227.734.734 0 01-.222-.539c0-.211.074-.39.223-.54a.738.738 0 01.539-.226h3.058V6.875c0-.21.075-.39.223-.54a.734.734 0 01.539-.222h4.586c.21 0 .39.074.539.223a.734.734 0 01.223.539v1.527h3.058a.74.74 0 01.54.227.734.734 0 01.222.539c0 .21-.074.39-.223.539a.723.723 0 01-.539.227zm0 0"/></g></svg>