<svg xmlns="http://www.w3.org/2000/svg" width="61" viewBox="0 0 45.75 60" height="80" version="1.0"><defs><clipPath id="a"><path d="M13 .164h32.5V43H13zm0 0"/></clipPath><clipPath id="b"><path d="M.004 42.04h14.031v17.37H.004zm0 0"/></clipPath></defs><g clip-path="url(#a)"><path fill="#f5f5f5" d="M13.793.164v41.89h31.953V.165H13.793"/></g><path fill="#afe4da" d="M17.082 4.102v33.261h25.375V4.102H17.082"/><path fill="#fbfbc3" d="M38.953 20.668H20.055v-7.02h18.898v7.02m0 12.652H20.055v-7.015h18.898v7.015"/><path fill="#eedebe" d="M29.621 30.031a2.57 2.57 0 01-2.578 2.563h-3.14a2.567 2.567 0 01-2.575-2.563 2.569 2.569 0 012.574-2.562h3.141a2.572 2.572 0 012.578 2.562m0-12.875a2.57 2.57 0 01-2.578 2.563h-3.14a2.567 2.567 0 01-2.575-2.563 2.569 2.569 0 012.574-2.562h3.141a2.572 2.572 0 012.578 2.562"/><path fill="#f5f5f5" d="M39.477 8.527a1.979 1.979 0 01-1.989 1.977H22.625a1.981 1.981 0 01-1.988-1.977 1.98 1.98 0 011.988-1.976h14.863a1.98 1.98 0 011.989 1.976"/><path fill="#f14485" d="M37.473 15.691c1.097-1.742.16-3.539-1.825.371-.812 1.606-1.015 2.235-1.015 2.235.047.09-1.442-1.715-1.442-1.715-1.41-1.543-2.605-.93-1.664 0 1.141 1.133 3.293 3.32 3.293 3.32s1.301-2.062 2.653-4.21m.004 12.531c1.093-1.743.156-3.54-1.829.375-.812 1.605-1.015 2.23-1.015 2.23.047.09-1.438-1.71-1.438-1.71-1.414-1.548-2.61-.934-1.668 0a486.35 486.35 0 013.293 3.316s1.305-2.059 2.657-4.211"/><path fill="#fbc589" d="M23.39 24.207s-1.64-1.066-4.726 3.594c-1.344 2.027-3.504 4.226-4.871 5.027V17.484l-4.977 7.422s-.207 14.582-1.754 16.36c-.375 1.12-.835 2.148-3.035 4.27 0 0 5.504 4.526 6.961 2.882 0 0 .676-2.07 2.805-4.559.46-.539 1.035-1.14 1.64-1.804 1.653-1.825 3.54-4.18 4.012-7.383 0 0 0-1.582 2.188-4.457 3.972-5.227 1.758-6.008 1.758-6.008"/><path fill="#fdf1ed" d="M20.379 26.219s1.516-1.762 2.441-1.367c1.188.503-.011 2.71-.304 2.96 0 0-1.512 0-2.137-1.593"/><g clip-path="url(#b)"><path fill="#f4f24b" d="M4.027 42.055l9.989 6.16-3.871 11.195H.004V48.777l4.023-6.722"/></g></svg>